# xmcd
# Track frame offsets:
# 150
# 11702
# 32115
# 43171
# 60863
# 77988
# 92715
# 110218
# 124193
# 140456
# 155352
# 161808
#
# Disc length: 2352 seconds
# Revision: 2
# Processed by: cddbd v1.5.2PL0 Copyright (c) Steve Scherf et al.
# Submitted via: VisiTrax 2.11.2.271 - For more info visit www.synapsa.com
#
DISCID=a0092e0c
DTITLE=Slim Dusty - Singer From Down Under
DYEAR=1985
DGENRE=Australian Country
TTITLE0=Singer From Down Under
TTITLE1=Born With An Endless Thirst
TTITLE2=You've Gotta Drink The Froth To Get The Beer
TTITLE3=My Son's Guitar
TTITLE4=The Ballad Of Henry Holloway
TTITLE5=Tonight The Woolshed Swings
TTITLE6=Stringybark And Greenhide
TTITLE7=Henry Lawson's Pen
TTITLE8=They Drank And Drank And Drank
TTITLE9=I'm Dusty All Over
TTITLE10=Life's Ride
TTITLE11=Traveller's Prayer
EXTD=1985 1996 EMI Music Australia
EXTT0=
EXTT1=
EXTT2=
EXTT3=
EXTT4=
EXTT5=
EXTT6=
EXTT7=
EXTT8=
EXTT9=
EXTT10=
EXTT11=
PLAYORDER=
